<svg id="svg" version="1.1" xmlns="http://www.w3.org/2000/svg" xmlns:xlink="http://www.w3.org/1999/xlink" width="400" height="315.98046057222615" viewBox="0, 0, 400,315.98046057222615"><g id="svgg"><path id="path0" d="M0.000 59.313 L 0.000 118.632 11.443 118.632 L 22.886 118.632 22.957 96.006 L 23.029 73.380 33.052 105.148 C 38.564 122.620,43.160 137.014,43.264 137.135 C 43.368 137.255,48.514 123.501,54.700 106.569 C 60.887 89.638,66.182 75.283,66.467 74.669 C 66.977 73.572,66.984 73.950,66.850 95.743 C 66.775 107.948,66.651 131.186,66.573 147.383 C 66.496 163.580,66.356 184.714,66.263 194.348 L 66.094 211.863 77.569 211.863 L 89.044 211.863 89.044 105.929 L 89.044 -0.006 77.571 0.067 L 66.098 0.140 54.340 29.539 L 42.582 58.938 32.782 29.539 L 22.982 0.140 11.491 0.067 L 0.000 -0.006 0.000 59.313 M132.122 40.335 C 132.124 41.410,132.174 41.815,132.234 41.236 C 132.295 40.657,132.294 39.778,132.232 39.282 C 132.171 38.786,132.121 39.260,132.122 40.335 M190.182 40.335 C 190.184 41.410,190.234 41.815,190.294 41.236 C 190.355 40.657,190.354 39.778,190.292 39.282 C 190.231 38.786,190.181 39.260,190.182 40.335 M125.973 40.195 C 125.973 41.040,126.026 41.385,126.090 40.963 C 126.154 40.541,126.154 39.850,126.090 39.428 C 126.026 39.006,125.973 39.351,125.973 40.195 M184.033 40.195 C 184.033 41.040,184.086 41.385,184.150 40.963 C 184.214 40.541,184.214 39.850,184.150 39.428 C 184.086 39.006,184.033 39.351,184.033 40.195 M252.496 43.007 C 250.682 43.258,250.131 43.423,250.407 43.634 C 250.864 43.984,270.581 49.134,270.747 48.947 C 271.104 48.544,271.669 46.119,271.478 45.810 C 270.431 44.115,257.880 42.262,252.496 43.007 M123.866 70.544 C 124.365 70.606,125.181 70.606,125.680 70.544 C 126.179 70.482,125.771 70.431,124.773 70.431 C 123.775 70.431,123.367 70.482,123.866 70.544 M132.659 70.813 C 132.927 70.884,133.367 70.884,133.636 70.813 C 133.904 70.743,133.685 70.686,133.147 70.686 C 132.610 70.686,132.390 70.743,132.659 70.813 M115.841 72.126 C 115.841 72.186,116.272 72.285,116.798 72.347 C 117.325 72.408,117.694 72.359,117.619 72.238 C 117.484 72.019,115.841 71.916,115.841 72.126 M120.521 72.219 C 121.023 72.281,121.777 72.280,122.196 72.216 C 122.616 72.153,122.205 72.102,121.284 72.103 C 120.363 72.105,120.020 72.157,120.521 72.219 M130.984 72.488 C 131.253 72.559,131.692 72.559,131.961 72.488 C 132.230 72.418,132.010 72.361,131.472 72.361 C 130.935 72.361,130.715 72.418,130.984 72.488 M269.461 80.247 C 269.562 80.983,269.644 81.857,269.644 82.190 L 269.644 82.795 277.690 82.779 L 285.736 82.763 287.286 83.790 C 288.138 84.355,290.359 86.286,292.221 88.081 L 295.607 91.345 297.768 89.302 C 298.957 88.178,299.969 87.168,300.016 87.056 C 300.111 86.833,294.693 83.218,292.254 81.878 C 288.165 79.630,287.844 79.571,279.094 79.445 C 274.741 79.383,270.751 79.236,270.228 79.120 L 269.277 78.908 269.461 80.247 M135.729 79.753 C 136.151 79.817,136.842 79.817,137.264 79.753 C 137.687 79.689,137.341 79.637,136.497 79.637 C 135.652 79.637,135.307 79.689,135.729 79.753 M149.831 79.756 C 150.332 79.818,151.086 79.817,151.505 79.753 C 151.925 79.689,151.514 79.638,150.593 79.640 C 149.672 79.641,149.329 79.694,149.831 79.756 M140.629 80.878 C 142.211 80.928,144.723 80.928,146.212 80.878 C 147.700 80.828,146.406 80.787,143.336 80.787 C 140.265 80.787,139.047 80.828,140.629 80.878 M156.385 81.141 C 156.654 81.212,157.094 81.212,157.362 81.141 C 157.631 81.071,157.411 81.014,156.874 81.014 C 156.336 81.014,156.117 81.071,156.385 81.141 M140.963 82.511 C 140.272 82.567,137.948 82.748,135.799 82.914 C 129.547 83.396,121.629 84.605,121.019 85.170 C 120.866 85.312,123.163 85.416,126.462 85.417 C 144.847 85.421,167.942 88.535,186.607 93.527 C 194.037 95.514,199.616 97.390,217.865 104.039 C 260.640 119.622,264.292 120.810,274.314 122.400 C 284.096 123.952,289.314 124.385,292.905 123.942 L 295.883 123.574 295.889 122.708 C 295.900 121.134,297.594 118.189,300.465 114.752 C 301.714 113.257,302.353 113.659,295.303 111.500 C 249.496 97.467,196.736 85.447,169.714 82.887 C 166.660 82.597,143.613 82.296,140.963 82.511 M232.305 85.694 C 232.305 86.232,232.362 86.452,232.432 86.183 C 232.503 85.914,232.503 85.475,232.432 85.206 C 232.362 84.937,232.305 85.157,232.305 85.694 M297.126 91.626 L 296.022 92.812 297.209 91.709 C 297.861 91.102,298.395 90.568,298.395 90.523 C 298.395 90.311,298.152 90.523,297.126 91.626 M291.818 95.255 L 290.998 96.162 291.905 95.342 C 292.404 94.891,292.812 94.483,292.812 94.435 C 292.812 94.219,292.582 94.409,291.818 95.255 M104.117 154.043 L 104.117 213.186 105.164 213.359 C 105.740 213.454,110.889 213.533,116.607 213.535 L 127.003 213.538 127.074 190.898 L 127.146 168.257 137.171 200.039 C 142.686 217.519,147.270 231.908,147.360 232.013 C 147.449 232.119,152.098 219.683,157.691 204.379 C 170.418 169.551,170.887 168.282,170.998 168.392 C 171.048 168.442,170.907 198.310,170.686 234.765 C 170.465 271.220,170.281 302.334,170.278 303.908 L 170.272 306.769 181.717 306.769 L 193.162 306.769 193.092 217.685 L 193.022 128.600 188.276 126.392 C 185.666 125.178,181.898 123.515,179.902 122.697 C 175.172 120.758,168.905 117.869,165.322 115.975 C 162.782 114.634,162.438 114.519,162.224 114.944 C 162.092 115.207,158.558 124.001,154.371 134.486 C 150.183 144.971,146.705 153.497,146.641 153.433 C 146.576 153.368,142.153 140.205,136.811 124.181 L 127.099 95.045 115.608 94.972 L 104.117 94.900 104.117 154.043 M289.026 100.000 L 288.207 100.907 289.114 100.087 C 289.613 99.636,290.021 99.228,290.021 99.180 C 290.021 98.965,289.791 99.154,289.026 100.000 M377.460 242.428 C 377.464 243.043,377.521 243.261,377.588 242.914 C 377.654 242.566,377.652 242.064,377.582 241.797 C 377.512 241.530,377.457 241.814,377.460 242.428 M323.045 245.778 C 323.047 246.699,323.099 247.042,323.161 246.541 C 323.223 246.039,323.222 245.285,323.158 244.866 C 323.095 244.446,323.044 244.857,323.045 245.778 M296.517 249.546 C 296.517 250.237,296.571 250.520,296.638 250.174 C 296.705 249.829,296.705 249.264,296.638 248.918 C 296.571 248.573,296.517 248.856,296.517 249.546 M353.511 296.720 C 353.511 302.324,353.548 304.616,353.593 301.814 C 353.639 299.013,353.639 294.428,353.593 291.626 C 353.548 288.824,353.511 291.117,353.511 296.720 M328.370 292.254 C 328.370 294.173,328.415 294.958,328.469 293.999 C 328.524 293.039,328.524 291.469,328.469 290.509 C 328.415 289.550,328.370 290.335,328.370 292.254 M239.619 299.512 C 239.619 303.580,239.658 305.244,239.706 303.210 C 239.754 301.176,239.754 297.847,239.706 295.813 C 239.658 293.779,239.619 295.443,239.619 299.512 M241.801 293.231 C 241.804 293.845,241.861 294.063,241.928 293.716 C 241.995 293.369,241.992 292.867,241.922 292.600 C 241.853 292.333,241.798 292.617,241.801 293.231 M278.698 299.512 C 278.698 303.580,278.737 305.244,278.785 303.210 C 278.833 301.176,278.833 297.847,278.785 295.813 C 278.737 293.779,278.698 295.443,278.698 299.512 M328.376 302.303 C 328.376 304.836,328.418 305.872,328.470 304.606 C 328.522 303.339,328.522 301.267,328.470 300.000 C 328.418 298.733,328.376 299.770,328.376 302.303 M281.202 302.442 C 281.202 304.899,281.245 305.866,281.297 304.592 C 281.348 303.319,281.348 301.309,281.296 300.126 C 281.244 298.944,281.201 299.986,281.202 302.442 M242.122 302.582 C 242.122 304.962,242.165 305.935,242.217 304.745 C 242.270 303.555,242.270 301.609,242.217 300.419 C 242.165 299.229,242.122 300.202,242.122 302.582 " stroke="none" fill="#e31c34" fill-rule="evenodd"></path><path id="path1" d="M149.006 14.909 C 147.213 15.997,145.670 16.965,145.578 17.060 C 145.486 17.154,145.001 19.164,144.499 21.526 L 143.588 25.820 141.162 25.901 C 138.917 25.975,138.725 26.027,138.598 26.598 C 138.522 26.938,138.287 27.996,138.076 28.950 L 137.693 30.685 140.121 30.765 L 142.549 30.844 140.220 42.010 C 137.385 55.605,137.112 57.334,137.561 58.833 C 138.416 61.685,141.934 63.185,146.598 62.685 C 148.996 62.429,149.048 62.376,149.595 59.697 L 150.074 57.356 147.449 57.359 C 144.573 57.362,143.754 56.922,143.754 55.374 C 143.754 54.762,148.309 32.332,148.664 31.193 C 148.797 30.768,149.204 30.705,151.820 30.705 L 154.823 30.705 155.151 28.960 C 155.332 28.001,155.557 26.933,155.651 26.588 C 155.821 25.965,155.797 25.960,152.859 25.960 C 150.448 25.960,149.895 25.884,149.895 25.552 C 149.895 25.328,150.462 22.475,151.155 19.213 C 151.848 15.950,152.382 13.202,152.341 13.105 C 152.301 13.009,150.800 13.820,149.006 14.909 M113.468 25.534 C 104.645 27.472,98.858 35.320,98.088 46.393 C 96.670 66.788,124.049 68.962,130.771 48.988 C 135.742 34.216,127.125 22.535,113.468 25.534 M171.528 25.534 C 162.705 27.472,156.918 35.320,156.148 46.393 C 154.730 66.788,182.109 68.962,188.831 48.988 C 193.802 34.216,185.185 22.535,171.528 25.534 M120.870 30.624 C 131.400 35.347,124.696 57.936,112.770 57.917 C 107.195 57.907,104.271 54.342,104.304 47.592 C 104.362 35.818,112.916 27.056,120.870 30.624 M178.930 30.624 C 189.460 35.347,182.756 57.936,170.830 57.917 C 165.255 57.907,162.331 54.342,162.364 47.592 C 162.422 35.818,170.976 27.056,178.930 30.624 M252.896 41.772 C 250.501 42.132,248.682 42.551,247.345 43.051 L 245.815 43.623 246.709 43.933 C 247.200 44.103,249.162 45.562,251.068 47.174 L 254.534 50.105 252.569 53.873 C 251.488 55.946,250.128 58.458,249.547 59.456 C 248.966 60.454,246.664 64.599,244.432 68.667 C 237.116 82.001,236.504 83.050,236.106 82.916 C 234.251 82.294,232.519 83.478,232.519 85.369 C 232.519 86.138,232.297 86.650,231.663 87.344 C 230.496 88.623,229.980 88.124,230.966 86.671 C 232.759 84.029,230.953 81.129,228.352 82.474 C 227.487 82.922,227.221 83.398,227.206 84.531 C 227.200 84.940,226.894 85.644,226.526 86.095 L 225.856 86.914 225.673 86.095 C 225.312 84.487,225.233 84.352,224.554 84.182 C 223.723 83.973,223.715 83.856,224.418 82.305 C 225.460 80.010,224.924 78.134,223.067 77.578 C 220.845 76.912,219.400 78.305,219.400 81.113 L 219.400 82.646 217.388 83.610 C 213.410 85.516,211.803 84.846,213.537 82.003 C 214.386 80.609,214.302 78.639,213.361 77.899 C 211.668 76.567,209.630 77.609,209.630 79.808 L 209.630 81.138 207.301 82.984 L 204.972 84.830 202.765 84.481 C 201.326 84.253,200.583 84.014,200.629 83.793 C 200.886 82.568,185.311 77.846,172.884 75.382 C 157.661 72.363,136.085 70.384,118.004 70.346 L 115.841 70.342 115.841 71.179 C 115.841 71.914,115.939 72.017,116.637 72.017 C 117.362 72.017,117.661 72.386,119.971 76.134 L 122.509 80.251 120.501 80.474 C 119.396 80.596,117.956 80.761,117.300 80.840 L 116.108 80.985 116.712 81.834 C 125.656 94.395,166.679 119.402,188.695 125.715 C 206.642 130.861,222.661 132.370,239.869 130.536 C 243.680 130.130,246.999 129.798,247.242 129.798 C 248.334 129.798,246.956 129.471,239.656 127.998 C 216.557 123.338,191.472 116.506,164.817 107.614 C 154.662 104.226,138.687 98.514,137.024 97.675 C 134.884 96.596,125.287 88.985,122.834 86.421 C 122.305 85.868,121.638 85.415,121.352 85.415 C 121.046 85.415,120.910 85.289,121.022 85.109 C 121.126 84.940,120.561 84.144,119.762 83.335 L 118.312 81.867 120.356 81.688 C 167.109 77.581,230.659 87.073,293.281 107.518 C 301.278 110.128,302.845 110.726,302.972 111.209 C 303.121 111.782,303.125 111.782,303.541 111.231 C 304.495 109.969,304.331 109.872,297.080 107.424 L 290.182 105.094 289.100 103.068 L 288.018 101.041 291.580 97.346 C 293.540 95.313,296.712 92.130,298.629 90.273 L 302.115 86.896 300.464 85.676 C 293.000 80.157,287.901 77.972,283.214 78.284 C 280.777 78.447,269.403 78.010,269.137 77.744 C 269.009 77.615,267.135 58.994,267.133 57.830 C 267.131 56.072,270.063 50.432,270.896 50.591 C 271.554 50.717,271.633 50.601,272.171 48.740 C 272.487 47.648,272.860 46.401,273.001 45.969 C 273.739 43.702,259.641 40.759,252.896 41.772 M263.782 43.414 C 266.597 43.957,271.223 45.397,271.478 45.810 C 271.669 46.119,271.104 48.544,270.747 48.947 C 270.581 49.134,250.864 43.984,250.407 43.634 C 249.224 42.728,259.367 42.561,263.782 43.414 M257.067 46.721 C 260.620 47.700,263.589 48.562,263.664 48.637 C 263.866 48.839,261.875 54.196,261.404 54.716 C 261.181 54.964,260.927 55.597,260.840 56.124 C 260.458 58.447,260.119 59.068,258.745 59.968 C 257.073 61.062,257.312 61.090,255.562 59.595 C 254.754 58.904,253.948 58.339,253.773 58.339 C 253.367 58.339,253.360 58.971,253.762 59.373 C 254.571 60.181,253.632 60.522,252.284 59.911 L 250.974 59.316 253.187 55.269 C 256.515 49.182,256.804 50.422,250.914 45.517 C 250.003 44.758,249.800 44.719,257.067 46.721 M267.380 49.582 L 269.015 50.037 267.356 53.547 L 265.697 57.058 265.996 59.803 C 266.414 63.648,266.398 63.990,265.806 63.818 C 265.537 63.740,264.815 63.547,264.201 63.389 L 263.084 63.102 263.175 60.790 C 263.246 58.989,263.384 58.353,263.798 57.908 C 265.102 56.509,264.983 54.431,263.599 54.431 C 263.077 54.431,263.109 54.244,264.099 51.529 C 265.064 48.880,264.997 48.920,267.380 49.582 M254.556 62.920 C 255.085 63.471,255.449 63.922,255.365 63.922 C 255.280 63.922,253.888 64.477,252.269 65.155 L 249.327 66.387 248.620 65.643 L 247.913 64.899 249.192 62.614 L 250.471 60.329 252.032 61.123 C 252.891 61.560,254.027 62.368,254.556 62.920 M255.794 61.810 C 256.821 63.156,256.703 63.366,255.548 62.247 C 255.010 61.726,254.571 61.199,254.571 61.076 C 254.571 60.583,255.101 60.901,255.794 61.810 M257.601 65.387 C 257.126 66.654,256.539 68.287,256.298 69.016 C 255.859 70.344,255.494 70.572,254.449 70.171 C 253.982 69.991,255.926 65.927,257.104 64.620 C 257.591 64.079,257.641 63.962,257.641 63.364 C 257.641 63.210,257.827 63.084,258.053 63.084 C 258.379 63.084,258.285 63.562,257.601 65.387 M264.998 64.834 C 266.626 65.211,266.484 64.874,266.966 69.505 C 267.432 73.983,267.755 73.489,264.827 72.776 L 262.387 72.182 262.387 68.377 C 262.387 64.462,262.468 64.064,263.209 64.351 C 263.448 64.444,264.253 64.661,264.998 64.834 M253.992 67.558 C 253.123 69.228,252.710 69.764,252.372 69.660 C 252.123 69.584,250.789 69.264,249.407 68.949 C 245.918 68.154,246.121 68.288,246.667 67.141 C 247.227 65.967,247.304 65.952,248.151 66.853 C 248.996 67.752,249.204 67.731,252.198 66.441 C 253.580 65.846,254.811 65.349,254.934 65.338 C 255.057 65.327,254.633 66.326,253.992 67.558 M249.337 70.094 C 250.834 70.435,252.059 70.815,252.059 70.937 C 252.059 71.102,250.328 74.469,249.959 75.022 C 249.902 75.107,243.326 73.705,243.202 73.581 C 242.859 73.238,245.563 69.221,246.057 69.339 C 246.364 69.412,247.840 69.752,249.337 70.094 M259.874 70.621 C 259.874 71.179,259.735 71.458,259.456 71.458 C 258.966 71.458,258.922 71.078,259.326 70.324 C 259.729 69.570,259.874 69.648,259.874 70.621 M254.501 71.355 C 255.291 71.567,255.286 71.733,254.419 74.002 L 253.709 75.860 252.543 75.598 C 251.902 75.454,251.338 75.297,251.292 75.251 C 251.120 75.079,253.324 71.189,253.594 71.188 C 253.747 71.187,254.156 71.263,254.501 71.355 M126.334 72.294 L 128.313 72.296 130.859 75.994 L 133.406 79.693 130.974 79.873 C 129.636 79.972,127.599 80.062,126.448 80.073 L 124.355 80.093 122.121 76.409 C 119.191 71.576,119.199 71.891,122.023 72.111 C 123.305 72.211,125.245 72.293,126.334 72.294 M138.589 72.819 L 140.262 72.994 142.545 76.202 C 143.801 77.967,144.806 79.425,144.780 79.443 C 144.590 79.573,135.066 79.775,135.195 79.646 C 135.284 79.556,134.295 77.941,132.997 76.056 C 131.698 74.171,130.635 72.563,130.635 72.482 C 130.635 72.319,135.953 72.545,138.589 72.819 M259.629 72.820 C 260.124 73.314,260.157 77.041,259.667 77.023 C 258.676 76.987,256.045 76.336,255.963 76.107 C 255.479 74.763,258.691 71.884,259.629 72.820 M148.360 73.550 C 150.509 73.772,152.466 73.958,152.708 73.962 C 152.950 73.967,154.173 75.290,155.426 76.902 L 157.704 79.833 153.980 79.833 C 151.932 79.833,149.516 79.755,148.610 79.659 L 146.964 79.486 145.010 76.707 C 142.356 72.933,142.439 73.132,143.531 73.139 C 144.038 73.142,146.211 73.327,148.360 73.550 M265.245 74.123 C 267.639 74.684,267.456 74.438,267.793 77.560 L 267.924 78.777 267.040 78.605 C 266.553 78.511,265.232 78.230,264.103 77.982 L 262.051 77.531 262.219 76.693 C 262.311 76.232,262.387 75.292,262.387 74.604 C 262.387 73.719,262.489 73.391,262.736 73.484 C 262.927 73.556,264.056 73.844,265.245 74.123 M163.429 75.462 C 165.093 75.784,165.107 75.795,166.848 78.135 C 167.810 79.427,168.565 80.506,168.527 80.533 C 168.303 80.688,159.371 79.937,159.533 79.777 C 159.641 79.669,158.836 78.448,157.744 77.063 C 156.651 75.678,155.757 74.499,155.757 74.443 C 155.757 74.311,161.264 75.042,163.429 75.462 M246.197 75.470 C 248.264 75.925,249.102 76.225,249.042 76.487 C 248.995 76.691,247.992 78.645,246.813 80.828 L 244.670 84.797 243.877 84.129 C 241.973 82.527,239.222 84.280,239.219 87.098 C 239.218 88.310,237.110 90.933,236.366 90.648 C 235.501 90.316,235.464 88.836,236.290 87.644 C 236.715 87.032,237.122 85.974,237.224 85.219 C 237.453 83.516,242.140 74.804,242.820 74.816 C 243.065 74.821,244.585 75.115,246.197 75.470 M172.081 76.936 L 175.870 77.668 177.468 79.327 C 179.526 81.466,179.570 81.622,178.054 81.414 C 177.382 81.322,175.764 81.173,174.459 81.083 C 170.999 80.843,171.045 80.865,169.332 78.589 C 167.201 75.758,166.905 75.936,172.081 76.936 M253.256 77.020 C 253.424 77.181,250.601 85.708,250.212 86.215 C 250.169 86.271,249.796 86.051,249.384 85.726 C 247.730 84.425,245.359 85.649,245.359 87.805 C 245.359 88.851,245.304 88.925,243.556 90.226 L 242.729 90.841 243.714 89.035 C 244.255 88.042,246.009 84.802,247.610 81.835 L 250.522 76.440 251.779 76.624 C 252.470 76.725,253.135 76.903,253.256 77.020 M258.935 78.150 L 262.043 78.781 262.348 81.191 C 262.515 82.516,262.736 84.323,262.837 85.206 L 263.022 86.811 262.124 86.811 C 261.124 86.811,259.616 88.073,259.566 88.953 C 259.419 91.526,259.380 91.670,258.646 92.301 C 257.031 93.690,255.483 92.693,255.973 90.579 C 256.709 87.405,255.935 85.694,253.762 85.694 C 251.995 85.694,251.126 88.127,252.037 90.523 C 252.329 91.291,251.386 93.229,250.938 92.780 C 249.659 91.497,249.740 90.968,252.292 83.930 C 254.447 77.988,254.763 77.293,255.265 77.400 C 255.574 77.465,257.226 77.803,258.935 78.150 M183.112 79.414 C 187.022 80.422,196.015 83.213,195.858 83.369 C 195.657 83.570,182.108 81.715,181.778 81.442 C 181.343 81.081,179.114 78.436,179.248 78.439 C 179.301 78.441,181.040 78.879,183.112 79.414 M267.924 80.500 C 268.034 81.071,267.438 81.004,264.819 80.152 C 262.469 79.389,262.895 79.009,265.515 79.533 C 267.303 79.890,267.849 80.109,267.924 80.500 M279.094 79.445 C 287.844 79.571,288.165 79.630,292.254 81.878 C 294.693 83.218,300.111 86.833,300.016 87.056 C 299.969 87.168,298.957 88.178,297.768 89.302 L 295.607 91.345 292.221 88.081 C 290.359 86.286,288.138 84.355,287.286 83.790 L 285.736 82.763 277.690 82.779 L 269.644 82.795 269.644 82.190 C 269.644 81.857,269.562 80.983,269.461 80.247 L 269.277 78.908 270.228 79.120 C 270.751 79.236,274.741 79.383,279.094 79.445 M266.179 81.829 C 267.746 82.285,268.248 82.551,268.248 82.925 C 268.248 83.447,264.726 82.707,263.852 82.000 C 262.758 81.115,263.527 81.059,266.179 81.829 M266.392 84.165 C 268.096 84.620,268.877 85.159,268.449 85.587 C 268.227 85.809,264.232 84.563,263.996 84.198 C 263.680 83.708,263.745 83.388,264.131 83.528 C 264.323 83.598,265.340 83.884,266.392 84.165 M286.835 84.997 C 287.729 85.611,289.890 87.495,291.637 89.184 L 294.815 92.254 291.333 95.883 L 287.851 99.512 287.994 98.199 C 288.123 97.015,288.053 96.803,287.286 96.036 C 285.667 94.416,283.322 95.552,283.322 97.955 C 283.322 98.919,283.234 99.093,282.745 99.093 C 282.428 99.093,281.941 99.214,281.664 99.363 C 281.204 99.609,281.172 99.522,281.299 98.391 C 281.376 97.707,281.288 96.782,281.102 96.335 C 280.825 95.665,280.843 95.371,281.206 94.669 C 281.768 93.582,281.763 92.985,281.185 92.346 C 280.204 91.261,277.460 91.941,277.460 93.269 C 277.460 93.575,277.043 93.993,276.413 94.317 C 275.837 94.614,274.939 95.302,274.417 95.845 L 273.468 96.834 272.774 96.289 C 272.393 95.989,271.910 95.743,271.700 95.743 C 271.229 95.743,271.214 95.881,271.877 94.135 C 272.789 91.737,272.216 89.602,270.661 89.602 C 270.371 89.602,270.207 89.112,270.079 87.858 C 269.980 86.898,269.832 85.646,269.749 85.075 L 269.598 84.037 273.180 83.940 C 275.150 83.887,278.663 83.851,280.986 83.862 L 285.210 83.880 286.835 84.997 M267.280 86.686 C 269.238 87.255,269.227 87.648,267.253 87.648 C 265.516 87.648,264.783 87.358,264.315 86.484 C 263.952 85.805,264.342 85.832,267.280 86.686 M268.878 89.114 C 268.942 89.306,268.645 89.677,268.217 89.938 C 267.355 90.466,266.709 92.268,266.945 93.488 C 267.197 94.786,266.318 95.372,265.768 94.272 C 265.497 93.730,265.067 93.335,264.689 93.281 C 263.944 93.175,263.959 93.265,264.480 92.018 C 264.710 91.467,264.899 90.509,264.899 89.890 L 264.899 88.765 266.829 88.765 C 268.125 88.765,268.799 88.880,268.878 89.114 M272.848 162.526 C 272.653 163.057,271.598 168.326,271.598 168.768 C 271.598 169.075,272.224 169.156,274.603 169.156 L 277.609 169.156 278.334 165.666 L 279.058 162.177 276.017 162.177 C 273.839 162.177,272.940 162.276,272.848 162.526 M217.865 175.300 C 212.714 176.239,208.671 179.201,206.410 183.690 C 205.055 186.381,204.736 186.105,209.782 186.613 L 211.469 186.783 212.154 185.321 C 215.555 178.059,229.170 177.765,229.170 184.954 C 229.170 189.815,228.825 189.991,218.027 190.644 C 207.040 191.308,202.279 194.510,201.874 201.507 C 201.216 212.863,213.336 216.358,224.630 208.071 C 225.361 207.535,225.368 207.548,225.722 210.049 L 225.960 211.724 229.132 211.803 L 232.305 211.882 232.137 211.213 C 231.215 207.538,231.429 204.680,233.224 196.727 C 235.865 185.026,235.942 182.439,233.733 179.542 C 231.192 176.212,223.758 174.224,217.865 175.300 M259.427 175.413 C 257.255 176.093,254.305 178.545,252.264 181.367 C 251.792 182.020,251.364 182.510,251.311 182.458 C 251.217 182.364,252.204 177.296,252.502 176.343 C 252.640 175.900,252.393 175.855,249.844 175.855 C 248.299 175.855,247.034 175.910,247.034 175.978 C 247.034 176.109,239.869 210.534,239.665 211.384 C 239.555 211.841,239.785 211.875,242.499 211.803 L 245.452 211.724 247.209 203.350 C 249.832 190.850,250.978 187.657,254.005 184.421 C 257.105 181.108,260.181 180.119,262.638 181.646 L 263.999 182.492 265.191 179.450 C 265.847 177.777,266.318 176.343,266.238 176.264 C 265.255 175.280,261.392 174.798,259.427 175.413 M300.146 175.447 C 297.351 176.200,294.184 178.139,291.347 180.835 C 289.975 182.139,289.975 182.158,291.283 176.483 C 291.425 175.864,291.388 175.855,288.631 175.855 C 287.092 175.855,285.830 175.886,285.825 175.925 C 285.820 175.963,284.147 184.069,282.107 193.937 L 278.399 211.881 281.466 211.802 L 284.534 211.724 286.300 203.070 C 289.068 189.504,290.068 186.683,293.230 183.531 C 298.814 177.963,307.179 178.658,306.665 184.648 C 306.547 186.025,301.461 210.341,301.044 211.523 C 300.945 211.804,301.595 211.864,304.042 211.803 L 307.166 211.724 309.743 200.000 C 313.359 183.548,313.492 181.806,311.373 178.596 C 309.443 175.672,304.480 174.280,300.146 175.447 M333.706 175.300 C 328.555 176.239,324.512 179.201,322.251 183.690 C 320.896 186.381,320.577 186.105,325.623 186.613 L 327.310 186.783 327.995 185.321 C 331.396 178.059,345.010 177.765,345.010 184.954 C 345.010 189.815,344.666 189.991,333.868 190.644 C 322.881 191.308,318.119 194.510,317.714 201.507 C 317.057 212.863,329.177 216.358,340.471 208.071 C 341.202 207.535,341.209 207.548,341.563 210.049 L 341.800 211.724 344.973 211.803 L 348.146 211.882 347.978 211.213 C 347.056 207.538,347.270 204.680,349.065 196.727 C 351.706 185.026,351.783 182.439,349.574 179.542 C 347.033 176.212,339.599 174.224,333.706 175.300 M266.264 193.859 L 262.494 211.863 265.580 211.862 L 268.667 211.861 272.375 194.067 C 274.414 184.281,276.078 176.179,276.073 176.064 C 276.068 175.949,274.707 175.855,273.049 175.855 L 270.033 175.855 266.264 193.859 M227.346 194.906 C 225.966 203.190,220.572 208.417,213.953 207.886 C 206.477 207.286,205.676 198.121,212.911 195.965 C 213.947 195.657,217.122 195.147,219.967 194.833 C 222.812 194.519,225.512 194.151,225.968 194.015 C 227.486 193.562,227.562 193.611,227.346 194.906 M343.187 194.906 C 341.807 203.190,336.413 208.417,329.794 207.886 C 322.318 207.286,321.517 198.121,328.752 195.965 C 329.788 195.657,332.963 195.147,335.808 194.833 C 338.652 194.519,341.353 194.151,341.809 194.015 C 343.327 193.562,343.403 193.611,343.187 194.906 M272.062 227.774 C 271.797 229.156,271.509 230.472,271.422 230.699 C 271.287 231.052,272.006 231.122,276.410 231.187 L 281.555 231.263 278.679 245.220 C 277.098 252.896,275.734 259.459,275.649 259.805 C 275.496 260.432,275.501 260.433,279.124 260.433 C 282.655 260.433,282.757 260.416,282.909 259.805 C 282.996 259.459,284.358 252.896,285.937 245.220 L 288.807 231.263 293.964 231.187 L 299.120 231.112 299.613 228.675 C 299.884 227.335,300.169 226.019,300.246 225.750 C 300.379 225.290,299.591 225.262,286.465 225.262 L 272.544 225.262 272.062 227.774 M307.225 234.637 C 300.562 236.250,296.862 241.473,296.860 249.267 C 296.858 264.001,316.952 265.638,322.179 251.330 C 326.046 240.743,318.197 231.981,307.225 234.637 M371.668 234.537 C 370.262 235.038,368.497 236.393,367.332 237.867 C 366.103 239.422,366.024 239.270,366.619 236.497 L 366.993 234.752 363.748 234.753 L 360.502 234.754 358.010 246.965 C 356.639 253.681,355.463 259.459,355.396 259.805 C 355.274 260.429,355.295 260.433,358.727 260.433 L 362.181 260.433 363.255 255.199 C 365.638 243.576,368.187 239.763,373.119 240.439 L 374.360 240.609 375.596 237.964 C 376.276 236.510,376.832 235.198,376.832 235.049 C 376.832 234.330,373.247 233.974,371.668 234.537 M385.035 234.591 C 380.341 235.663,377.669 238.480,377.669 242.359 C 377.669 246.412,378.952 247.606,386.034 250.148 C 390.064 251.594,390.858 252.120,390.858 253.342 C 390.858 254.966,388.332 256.146,385.417 255.885 C 383.037 255.671,382.088 255.002,380.600 252.492 C 380.339 252.052,380.117 252.056,377.176 252.557 C 373.366 253.205,373.510 253.074,374.471 255.038 C 378.745 263.775,395.583 262.836,397.765 253.739 C 398.837 249.273,396.584 246.798,389.279 244.414 C 384.896 242.984,384.001 242.433,384.142 241.253 C 384.446 238.717,390.126 238.490,392.553 240.917 L 393.640 242.004 396.471 241.548 C 399.935 240.989,399.908 241.013,399.147 239.244 C 397.413 235.213,391.235 233.176,385.035 234.591 M331.222 235.241 C 330.116 238.881,327.330 252.561,327.314 254.431 C 327.258 260.896,334.469 263.261,340.202 258.658 C 342.171 257.077,342.049 257.101,341.829 258.339 C 341.720 258.953,341.565 259.680,341.485 259.953 C 341.349 260.414,341.583 260.445,344.615 260.372 L 347.892 260.293 350.773 247.592 C 352.357 240.607,353.655 234.860,353.658 234.822 C 353.691 234.409,346.703 234.822,346.584 235.241 C 346.507 235.509,345.812 238.555,345.038 242.010 C 342.980 251.201,342.527 252.390,340.366 254.288 C 338.278 256.121,336.577 256.404,335.175 255.152 C 333.868 253.983,334.061 252.711,338.173 235.380 C 338.379 234.512,331.486 234.374,331.222 235.241 M313.477 240.126 C 319.075 242.954,315.301 255.646,308.852 255.681 C 305.543 255.699,303.055 252.366,303.583 248.623 C 304.544 241.808,309.086 237.907,313.477 240.126 M209.685 286.922 C 204.906 288.572,204.402 294.301,208.854 296.368 C 209.511 296.673,211.368 297.267,212.980 297.689 C 217.309 298.821,218.283 299.493,218.283 301.350 C 218.283 306.086,208.554 305.726,207.792 300.962 C 207.529 299.319,205.162 299.081,205.167 300.698 C 205.186 306.990,216.485 309.549,219.972 304.051 C 222.674 299.790,220.369 296.687,213.161 294.883 C 208.941 293.827,207.624 292.570,208.653 290.579 C 210.218 287.553,216.876 288.186,217.588 291.428 C 217.848 292.612,220.237 292.717,220.237 291.545 C 220.237 287.787,214.481 285.265,209.685 286.922 M299.236 288.338 C 297.253 292.268,300.576 291.094,302.968 287.020 C 303.122 286.758,302.787 286.671,301.626 286.671 L 300.078 286.671 299.236 288.338 M325.750 296.697 L 325.750 306.769 327.006 306.769 L 328.262 306.769 328.262 302.276 L 328.262 297.783 330.911 297.880 L 333.559 297.976 334.800 299.232 C 335.482 299.923,336.912 301.870,337.978 303.559 L 339.916 306.629 341.638 306.713 L 343.360 306.796 342.610 305.596 C 339.885 301.240,338.165 298.874,337.288 298.278 L 336.287 297.598 337.397 297.299 C 341.194 296.277,342.871 292.160,340.779 288.997 C 339.462 287.008,338.744 286.825,331.821 286.718 L 325.750 286.624 325.750 296.697 M353.664 296.694 L 353.664 306.769 358.181 306.769 C 363.948 306.769,365.516 306.387,367.371 304.533 C 371.066 300.838,371.025 292.282,367.296 288.709 C 365.566 287.051,364.687 286.844,358.897 286.726 L 353.664 286.619 353.664 296.694 M336.921 289.358 C 339.752 290.490,339.409 294.482,336.409 295.315 C 335.843 295.472,333.779 295.601,331.821 295.602 L 328.262 295.604 328.262 292.254 L 328.262 288.904 332.025 288.904 C 334.846 288.904,336.071 289.018,336.921 289.358 M363.215 289.196 C 365.993 289.967,367.204 292.215,367.196 296.581 C 367.184 302.815,365.454 304.531,359.177 304.534 L 356.176 304.536 356.176 296.720 L 356.176 288.904 359.177 288.906 C 360.827 288.907,362.644 289.037,363.215 289.196 M227.913 292.220 C 225.884 292.753,224.583 293.947,224.027 295.787 C 223.813 296.494,226.098 297.142,226.332 296.441 C 227.432 293.141,233.636 293.622,233.636 297.007 C 233.636 297.633,232.678 297.933,229.189 298.400 C 225.123 298.944,223.590 300.220,223.588 303.061 C 223.585 306.728,228.443 308.345,232.287 305.955 C 233.961 304.915,233.858 304.921,233.966 305.862 C 234.047 306.568,234.163 306.636,235.417 306.716 C 236.643 306.794,236.756 306.752,236.555 306.297 C 236.432 306.019,236.245 303.329,236.139 300.319 C 235.923 294.174,235.725 293.486,233.927 292.629 C 232.834 292.108,229.264 291.865,227.913 292.220 M244.103 292.413 C 243.643 292.652,242.920 293.177,242.498 293.580 L 241.731 294.312 241.731 293.283 C 241.731 292.293,241.694 292.254,240.754 292.254 L 239.777 292.254 239.777 299.512 L 239.777 306.769 240.893 306.769 L 242.010 306.769 242.010 302.899 C 242.010 296.693,242.684 294.753,244.988 294.320 C 247.778 293.797,248.151 294.638,248.151 301.452 L 248.151 306.769 249.407 306.769 L 250.663 306.769 250.679 302.094 C 250.697 296.772,250.920 295.780,252.309 294.846 C 253.652 293.943,254.970 294.006,255.988 295.024 L 256.804 295.840 256.804 301.304 L 256.804 306.769 258.080 306.769 L 259.355 306.769 259.266 300.648 C 259.183 294.974,259.134 294.469,258.598 293.739 C 256.963 291.512,253.703 291.352,251.388 293.384 L 250.376 294.273 249.775 293.509 C 248.622 292.043,245.848 291.507,244.103 292.413 M266.713 292.220 C 264.683 292.753,263.383 293.947,262.827 295.787 C 262.613 296.494,264.898 297.142,265.131 296.441 C 266.231 293.141,272.435 293.622,272.435 297.007 C 272.435 297.633,271.477 297.933,267.988 298.400 C 263.923 298.944,262.390 300.220,262.388 303.061 C 262.385 306.728,267.243 308.345,271.087 305.955 C 272.761 304.915,272.658 304.921,272.766 305.862 C 272.847 306.568,272.963 306.636,274.216 306.716 C 275.442 306.794,275.556 306.752,275.355 306.297 C 275.232 306.019,275.045 303.329,274.939 300.319 C 274.723 294.174,274.525 293.486,272.727 292.629 C 271.633 292.108,268.064 291.865,266.713 292.220 M283.324 292.420 C 282.787 292.652,282.065 293.109,281.719 293.434 L 281.089 294.026 281.089 293.140 C 281.089 292.292,281.040 292.254,279.972 292.254 L 278.856 292.254 278.856 299.512 L 278.856 306.769 279.944 306.769 L 281.033 306.769 281.136 301.954 C 281.250 296.597,281.431 295.912,283.014 294.846 C 284.380 293.927,285.863 293.992,287.016 295.022 L 287.927 295.836 288.019 301.302 L 288.110 306.769 289.344 306.769 L 290.579 306.769 290.579 301.589 C 290.579 295.860,290.327 294.315,289.227 293.296 C 287.808 291.982,285.220 291.597,283.324 292.420 M297.412 292.348 C 295.474 292.983,293.006 295.611,293.698 296.303 C 294.181 296.786,296.119 296.737,296.278 296.237 C 297.212 293.295,303.419 293.694,303.419 296.697 C 303.419 297.667,302.906 297.869,299.129 298.380 C 294.779 298.969,293.254 300.265,293.443 303.210 C 293.677 306.865,298.261 308.324,302.071 305.955 C 303.746 304.914,303.593 304.916,303.796 305.932 C 303.953 306.718,304.043 306.769,305.259 306.769 C 306.481 306.769,306.543 306.733,306.340 306.141 C 306.222 305.796,306.046 303.126,305.950 300.209 C 305.755 294.333,305.599 293.728,304.021 292.753 C 302.810 292.004,299.145 291.780,297.412 292.348 M233.553 301.233 C 233.091 304.677,226.990 306.374,226.213 303.275 C 225.822 301.717,226.715 301.107,230.273 300.500 C 231.724 300.253,232.966 299.995,233.033 299.928 C 233.396 299.566,233.681 300.281,233.553 301.233 M272.353 301.233 C 271.891 304.677,265.790 306.374,265.012 303.275 C 264.621 301.717,265.515 301.107,269.072 300.500 C 270.523 300.253,271.765 299.995,271.833 299.928 C 272.195 299.566,272.481 300.281,272.353 301.233 M302.942 302.666 C 301.768 304.712,298.296 305.467,296.682 304.025 C 294.830 302.370,296.031 301.163,300.196 300.496 C 301.723 300.251,303.042 299.980,303.127 299.894 C 303.557 299.454,303.397 301.873,302.942 302.666 M310.398 305.513 C 310.398 306.683,310.448 306.769,311.130 306.769 C 312.063 306.769,311.897 308.151,310.831 309.271 C 310.243 309.888,310.205 310.045,310.533 310.489 C 311.538 311.850,313.189 309.100,313.189 306.066 L 313.189 304.257 311.793 304.257 L 310.398 304.257 310.398 305.513 M346.127 305.513 L 346.127 306.769 347.523 306.769 L 348.918 306.769 348.918 305.513 L 348.918 304.257 347.523 304.257 L 346.127 304.257 346.127 305.513 M374.040 305.513 L 374.040 306.769 375.436 306.769 L 376.832 306.769 376.832 305.513 L 376.832 304.257 375.436 304.257 L 374.040 304.257 374.040 305.513 " stroke="none" fill="#07070e" fill-rule="evenodd"></path><path id="path2" d="M320.167 40.760 C 315.271 43.418,312.681 51.320,312.999 62.638 C 313.172 68.805,313.376 70.628,314.980 80.309 C 317.443 95.169,317.117 96.115,304.800 109.839 C 298.324 117.055,295.892 120.562,295.885 122.695 L 295.883 123.547 288.137 124.602 C 270.187 127.046,251.097 129.361,235.729 130.956 C 222.562 132.323,204.176 130.248,188.284 125.603 C 186.284 125.018,184.615 124.574,184.574 124.615 C 183.948 125.241,207.544 134.694,216.981 137.599 C 250.441 147.895,278.984 148.912,323.378 141.388 C 348.525 137.126,368.496 136.496,385.335 139.434 C 388.114 139.919,388.172 139.855,385.832 138.883 C 370.709 132.598,343.319 125.964,322.333 123.502 C 320.535 123.291,320.473 123.191,319.869 119.503 C 319.205 115.445,319.669 114.529,324.868 109.637 C 329.012 105.737,329.271 105.686,345.150 105.655 C 361.834 105.621,366.299 105.039,371.961 102.156 C 377.101 99.539,379.180 97.681,380.192 94.802 C 381.170 92.020,381.196 92.034,377.419 93.272 C 368.597 96.164,359.274 92.241,349.746 81.628 C 346.804 78.352,345.583 77.866,342.777 78.856 C 341.519 79.299,339.983 79.415,339.990 79.065 C 339.993 78.950,340.175 78.353,340.397 77.739 C 341.594 74.415,340.800 72.464,337.248 70.002 C 325.557 61.899,320.196 52.524,321.948 43.244 C 322.670 39.422,322.659 39.407,320.167 40.760 " stroke="none" fill="#04bce3" fill-rule="evenodd"></path><path id="path3" d="M32.635 29.100 C 37.971 45.105,42.391 58.366,42.459 58.569 C 42.526 58.772,47.719 46.085,53.999 30.376 C 60.279 14.667,65.584 1.406,65.789 0.907 L 66.162 0.000 44.548 0.000 L 22.935 0.000 32.635 29.100 M89.044 105.932 L 89.044 211.863 77.569 211.863 L 66.094 211.863 66.263 194.348 C 66.356 184.714,66.496 163.580,66.573 147.383 C 66.651 131.186,66.775 107.948,66.850 95.743 C 66.984 73.950,66.977 73.572,66.467 74.669 C 66.182 75.283,60.887 89.638,54.700 106.569 C 48.514 123.501,43.368 137.255,43.264 137.135 C 43.160 137.014,38.564 122.620,33.052 105.148 L 23.029 73.380 22.957 96.006 L 22.886 118.632 11.443 118.632 L 0.000 118.632 0.000 217.306 L 0.000 315.980 200.000 315.980 L 400.000 315.980 400.000 157.990 L 400.000 0.000 244.522 0.000 L 89.044 0.000 89.044 105.932 M151.166 19.377 C 150.467 22.694,149.895 25.532,149.895 25.684 C 149.895 25.848,151.092 25.960,152.856 25.960 C 155.786 25.960,155.816 25.966,155.668 26.588 C 155.586 26.933,155.367 28.001,155.183 28.960 L 154.847 30.705 151.843 30.705 C 148.945 30.705,148.834 30.727,148.679 31.344 C 148.402 32.448,144.370 51.974,144.049 53.769 C 143.491 56.885,144.428 57.713,148.119 57.368 C 149.856 57.205,150.229 57.238,150.112 57.544 C 150.033 57.751,149.806 58.833,149.608 59.948 C 149.130 62.626,149.065 62.666,145.160 62.666 C 142.090 62.666,141.813 62.618,140.254 61.822 C 136.595 59.954,136.581 59.008,139.965 42.900 C 141.282 36.634,142.359 31.327,142.359 31.106 C 142.359 30.789,141.869 30.705,140.026 30.705 L 137.693 30.705 138.153 28.402 L 138.613 26.099 141.029 26.019 C 143.024 25.952,143.469 25.855,143.586 25.460 C 143.664 25.198,144.060 23.350,144.467 21.354 C 144.873 19.358,145.351 17.502,145.527 17.230 C 145.932 16.606,152.238 12.804,152.352 13.115 C 152.399 13.242,151.865 16.060,151.166 19.377 M121.831 25.550 C 136.189 29.289,135.536 53.677,120.884 60.890 C 108.895 66.792,97.471 59.714,98.071 46.755 C 98.747 32.137,109.675 22.383,121.831 25.550 M179.891 25.550 C 194.249 29.289,193.596 53.677,178.944 60.890 C 166.955 66.792,155.531 59.714,156.131 46.755 C 156.807 32.137,167.735 22.383,179.891 25.550 M114.731 30.298 C 109.154 31.859,105.397 37.384,104.377 45.524 C 102.589 59.784,117.606 62.845,123.839 49.491 C 129.065 38.295,124.033 27.692,114.731 30.298 M172.791 30.298 C 167.214 31.859,163.457 37.384,162.437 45.524 C 160.649 59.784,175.666 62.845,181.899 49.491 C 187.125 38.295,182.094 27.692,172.791 30.298 M304.396 31.264 C 322.084 35.026,335.411 49.960,336.555 67.299 L 336.714 69.700 338.339 70.788 C 340.726 72.387,341.447 74.823,340.397 77.739 C 340.175 78.353,339.993 78.950,339.990 79.065 C 339.983 79.415,341.519 79.299,342.777 78.856 C 345.583 77.866,346.804 78.352,349.746 81.628 C 359.274 92.241,368.597 96.164,377.419 93.272 C 381.196 92.034,381.170 92.020,380.192 94.802 C 379.180 97.681,377.101 99.539,371.961 102.156 C 366.299 105.039,361.834 105.621,345.150 105.655 C 329.271 105.686,329.012 105.737,324.868 109.637 C 319.669 114.529,319.205 115.445,319.869 119.503 C 320.473 123.191,320.535 123.291,322.333 123.502 C 343.319 125.964,370.709 132.598,385.832 138.883 C 388.172 139.855,388.114 139.919,385.335 139.434 C 368.496 136.496,348.525 137.126,323.378 141.388 C 270.408 150.366,235.472 147.050,194.208 129.128 L 193.161 128.674 193.161 217.721 L 193.161 306.769 181.717 306.769 L 170.272 306.769 170.278 303.908 C 170.281 302.334,170.465 271.220,170.686 234.765 C 170.907 198.310,171.048 168.442,170.998 168.392 C 170.887 168.282,170.418 169.551,157.691 204.379 C 152.098 219.683,147.449 232.119,147.360 232.013 C 147.270 231.908,142.686 217.519,137.171 200.039 L 127.146 168.257 127.074 190.898 L 127.003 213.538 116.607 213.535 C 110.889 213.533,105.740 213.454,105.164 213.359 L 104.117 213.186 104.117 154.043 L 104.117 94.900 115.608 94.972 L 127.099 95.045 136.811 124.181 C 142.153 140.205,146.576 153.368,146.640 153.433 C 146.705 153.497,150.274 144.759,154.573 134.015 L 162.389 114.480 156.942 111.500 C 139.736 102.089,125.759 91.959,117.925 83.223 C 115.734 80.779,115.670 80.893,119.443 80.536 L 122.451 80.251 120.033 76.343 C 117.818 72.765,117.539 72.428,116.727 72.348 C 115.920 72.268,115.841 72.174,115.841 71.301 L 115.841 70.342 119.819 70.344 C 141.140 70.354,165.714 73.177,183.225 77.629 C 191.221 79.661,200.960 83.091,200.562 83.734 C 200.465 83.891,200.425 84.026,200.472 84.034 C 200.519 84.042,201.560 84.213,202.784 84.413 L 205.010 84.778 207.250 82.969 C 209.445 81.198,209.491 81.135,209.498 79.907 C 209.513 77.653,211.767 76.544,213.429 77.974 C 214.436 78.840,214.494 80.722,213.556 82.040 C 212.513 83.505,212.933 84.976,214.324 84.730 C 216.859 84.281,219.484 82.697,219.292 81.733 C 218.600 78.274,221.975 75.962,224.309 78.296 C 225.165 79.152,225.214 80.935,224.424 82.484 C 223.710 83.886,223.713 83.912,224.675 84.247 C 225.341 84.479,225.519 84.739,225.685 85.724 L 225.887 86.919 226.475 86.113 C 226.797 85.670,227.076 84.884,227.094 84.367 C 227.162 82.412,229.613 81.367,230.963 82.718 C 231.910 83.664,231.916 85.105,230.982 86.699 C 230.173 88.080,230.489 88.565,231.493 87.483 C 231.933 87.009,232.226 86.292,232.319 85.462 C 232.527 83.620,233.799 82.494,235.421 82.716 L 236.567 82.873 241.434 74.026 C 244.111 69.159,247.708 62.660,249.427 59.582 C 252.857 53.439,254.292 50.689,254.292 50.257 C 254.292 49.794,247.629 44.269,246.666 43.933 L 245.778 43.623 246.771 43.202 C 250.547 41.601,259.587 41.120,264.534 42.256 L 266.820 42.781 268.721 41.052 C 278.141 32.480,292.101 28.650,304.396 31.264 M250.678 45.267 C 250.916 45.471,252.203 46.563,253.539 47.692 C 254.874 48.822,255.967 49.798,255.967 49.862 C 255.967 50.082,253.656 54.580,252.441 56.724 C 250.958 59.343,250.961 59.253,252.347 59.879 C 253.677 60.478,254.293 60.176,253.694 59.216 C 252.887 57.926,253.866 58.076,255.480 59.491 C 256.552 60.432,257.125 60.774,257.210 60.525 C 257.279 60.321,257.548 59.403,257.806 58.485 C 258.469 56.131,259.963 52.655,261.281 50.399 C 262.650 48.057,263.074 48.394,256.525 46.614 C 253.531 45.801,250.893 45.081,250.663 45.015 C 250.305 44.912,250.307 44.949,250.678 45.267 M312.722 60.433 C 312.724 61.507,312.774 61.913,312.835 61.334 C 312.895 60.754,312.894 59.875,312.832 59.380 C 312.771 58.884,312.721 59.358,312.722 60.433 M249.226 62.677 L 247.938 65.003 248.551 65.579 C 249.349 66.329,249.231 66.347,252.553 64.991 L 255.420 63.821 254.507 62.869 C 254.005 62.346,252.901 61.565,252.054 61.134 L 250.514 60.351 249.226 62.677 M254.751 61.065 C 254.587 61.330,256.146 63.001,256.355 62.785 C 256.418 62.719,256.119 62.247,255.691 61.736 C 255.262 61.224,254.839 60.923,254.751 61.065 M251.876 66.577 L 249.042 67.777 248.265 66.966 C 247.287 65.945,247.235 65.950,246.676 67.123 L 246.214 68.092 247.252 68.363 C 250.305 69.161,252.741 69.751,252.779 69.701 C 253.233 69.105,255.113 65.326,254.945 65.348 C 254.816 65.364,253.435 65.918,251.876 66.577 M255.057 68.121 L 254.009 70.051 254.693 70.223 C 255.892 70.524,256.400 69.505,256.196 67.207 L 256.106 66.190 255.057 68.121 M244.317 71.415 L 243.136 73.603 246.271 74.241 C 247.996 74.592,249.529 74.895,249.677 74.913 C 250.027 74.958,252.085 71.094,251.832 70.869 C 251.683 70.737,245.927 69.224,245.577 69.226 C 245.534 69.226,244.967 70.211,244.317 71.415 M253.240 71.531 C 253.087 71.721,252.578 72.643,252.109 73.579 L 251.257 75.280 252.474 75.559 L 253.690 75.837 254.443 73.774 C 254.857 72.639,255.149 71.672,255.093 71.624 C 254.707 71.299,253.476 71.237,253.240 71.531 M120.085 72.924 C 120.305 73.269,121.353 74.980,122.414 76.726 C 124.714 80.510,123.999 80.171,129.137 79.908 L 133.346 79.693 130.804 75.997 L 128.262 72.302 123.973 72.299 L 119.685 72.296 120.085 72.924 M132.524 75.306 C 133.558 76.809,134.655 78.382,134.963 78.803 L 135.523 79.567 140.166 79.491 L 144.808 79.414 142.480 76.177 L 140.152 72.940 137.417 72.759 C 135.913 72.659,133.774 72.577,132.663 72.576 L 130.644 72.575 132.524 75.306 M142.790 73.441 C 142.920 73.656,143.825 74.940,144.803 76.295 C 145.780 77.649,146.642 78.922,146.719 79.122 C 146.863 79.497,156.996 80.082,157.342 79.736 C 157.485 79.593,153.718 74.620,153.167 74.225 C 153.041 74.134,151.343 73.911,149.393 73.729 C 147.443 73.547,145.107 73.320,144.201 73.225 C 142.836 73.081,142.595 73.118,142.790 73.441 M156.047 74.738 C 156.053 74.853,156.869 75.953,157.861 77.181 C 158.852 78.409,159.664 79.552,159.664 79.721 C 159.665 80.009,167.939 80.583,168.208 80.314 C 168.407 80.116,164.978 75.646,164.623 75.639 C 164.429 75.636,162.638 75.387,160.642 75.087 C 156.594 74.479,156.032 74.436,156.047 74.738 M239.846 79.503 C 238.003 82.850,237.264 84.467,237.263 85.153 C 237.262 85.683,236.954 86.613,236.574 87.230 C 235.748 88.570,235.626 90.364,236.342 90.639 C 237.115 90.935,238.989 88.512,239.121 87.044 C 239.377 84.204,242.297 82.332,243.830 84.026 C 244.112 84.337,244.450 84.555,244.582 84.511 C 245.080 84.345,249.203 76.345,248.885 76.164 C 248.604 76.004,243.027 74.804,242.599 74.811 C 242.505 74.813,241.267 76.924,239.846 79.503 M255.874 75.764 C 255.791 75.980,255.903 76.227,256.124 76.311 C 256.355 76.400,256.525 76.299,256.525 76.072 C 256.525 75.515,256.055 75.292,255.874 75.764 M167.946 76.552 C 170.420 80.609,170.577 80.703,175.576 81.094 C 176.727 81.184,178.028 81.327,178.467 81.411 C 179.469 81.604,179.316 81.293,177.403 79.254 L 176.020 77.781 172.937 77.165 C 167.748 76.129,167.684 76.121,167.946 76.552 M246.808 83.336 C 244.764 87.122,243.138 90.265,243.194 90.322 C 243.449 90.576,245.380 88.663,245.239 88.296 C 244.492 86.350,247.659 84.370,249.369 85.714 L 250.103 86.292 250.407 85.505 C 253.335 77.900,253.595 76.782,252.442 76.766 C 252.270 76.764,251.767 76.692,251.326 76.607 C 250.531 76.454,250.487 76.520,246.808 83.336 M252.408 83.709 C 249.883 90.717,249.916 90.568,250.542 92.054 L 250.980 93.091 251.501 92.455 C 251.953 91.903,252.000 91.495,251.861 89.342 C 251.624 85.694,253.013 84.476,255.408 86.231 C 256.073 86.718,256.106 86.875,256.106 89.584 C 256.106 92.836,256.389 93.307,257.952 92.660 C 258.955 92.244,259.316 91.629,259.316 90.337 C 259.316 89.799,259.443 89.025,259.599 88.617 C 259.832 88.004,259.705 87.434,258.877 85.363 C 258.324 83.983,257.611 81.765,257.292 80.436 C 256.627 77.661,256.658 77.714,255.548 77.487 L 254.710 77.316 252.408 83.709 M180.579 80.087 L 181.969 81.692 188.294 82.453 C 191.773 82.871,194.681 83.151,194.756 83.076 C 194.955 82.877,188.405 80.851,183.441 79.575 L 179.188 78.482 180.579 80.087 M127.844 81.232 C 121.123 81.641,118.632 81.859,118.632 82.040 C 118.632 82.142,119.241 82.826,119.986 83.560 L 121.340 84.893 124.243 84.338 C 138.393 81.632,160.980 81.451,178.507 83.903 C 208.360 88.081,250.321 97.924,292.794 110.713 L 301.568 113.355 302.383 112.540 C 303.844 111.079,303.537 110.901,294.422 107.920 C 234.924 88.462,172.733 78.498,127.844 81.232 M121.982 85.548 C 121.982 86.569,135.715 97.114,138.461 98.202 C 170.530 110.908,239.914 130.295,250.105 129.395 C 252.405 129.192,278.240 125.961,285.526 124.966 L 290.104 124.340 286.085 123.991 C 283.874 123.798,280.935 123.466,279.553 123.253 C 278.172 123.039,275.283 122.595,273.133 122.265 C 264.937 121.009,260.343 119.504,220.098 104.878 C 189.756 93.852,182.838 91.864,164.131 88.794 C 150.323 86.527,121.982 84.345,121.982 85.548 M279.067 162.526 C 278.996 162.718,278.649 164.288,278.294 166.015 L 277.649 169.156 274.520 169.156 L 271.392 169.156 272.109 165.666 L 272.826 162.177 276.010 162.177 C 278.440 162.177,279.164 162.260,279.067 162.526 M226.412 175.419 C 235.337 177.311,236.742 181.327,233.497 195.673 C 231.810 203.129,231.403 207.367,232.055 210.677 L 232.289 211.863 229.093 211.863 L 225.897 211.863 225.557 209.759 L 225.218 207.655 223.914 208.647 C 215.857 214.772,205.892 213.830,202.566 206.630 C 201.564 204.459,201.669 199.724,202.769 197.553 C 205.047 193.055,208.979 191.183,217.282 190.643 C 229.001 189.881,229.681 189.520,229.102 184.378 C 228.354 177.743,215.597 178.405,212.247 185.253 L 211.496 186.787 208.819 186.588 C 204.882 186.295,205.005 186.415,206.177 183.993 C 209.550 177.020,217.691 173.570,226.412 175.419 M264.749 175.596 C 266.597 176.287,266.581 176.124,265.154 179.680 L 264.010 182.528 262.869 181.774 C 259.418 179.492,254.154 182.585,251.325 188.556 C 249.888 191.589,248.913 195.233,246.860 205.234 L 245.499 211.863 242.493 211.863 C 239.518 211.863,239.488 211.857,239.635 211.235 C 239.716 210.890,241.351 203.070,243.266 193.859 C 245.182 184.648,246.816 176.828,246.897 176.483 C 247.028 175.926,252.617 175.408,252.617 175.952 C 252.617 176.006,252.303 177.471,251.918 179.208 C 251.070 183.043,251.011 182.974,252.987 180.463 C 256.724 175.716,260.687 174.076,264.749 175.596 M307.900 175.760 C 311.764 177.501,313.495 181.355,312.659 186.354 C 312.482 187.411,311.181 193.583,309.768 200.070 L 307.200 211.863 304.035 211.863 C 301.150 211.863,300.883 211.820,301.019 211.375 C 301.730 209.045,306.537 185.662,306.571 184.368 C 306.688 179.868,302.121 178.427,296.488 181.187 C 291.138 183.809,289.498 187.404,286.220 203.698 L 284.578 211.862 281.432 211.863 L 278.287 211.863 278.459 211.177 C 278.553 210.800,280.229 202.730,282.183 193.243 L 285.735 175.994 288.576 175.915 C 290.138 175.871,291.413 175.934,291.409 176.054 C 291.406 176.175,291.158 177.341,290.858 178.646 C 290.104 181.937,290.110 181.947,291.879 180.330 C 297.170 175.494,303.378 173.724,307.900 175.760 M342.253 175.419 C 351.178 177.311,352.583 181.327,349.337 195.673 C 347.651 203.129,347.244 207.367,347.896 210.677 L 348.130 211.863 344.934 211.863 L 341.737 211.863 341.398 209.759 L 341.059 207.655 339.755 208.647 C 331.698 214.772,321.733 213.830,318.407 206.630 C 317.405 204.459,317.510 199.724,318.610 197.553 C 320.888 193.055,324.819 191.183,333.123 190.643 C 344.842 189.881,345.522 189.520,344.943 184.378 C 344.195 177.743,331.438 178.405,328.088 185.253 L 327.337 186.787 324.660 186.588 C 320.723 186.295,320.846 186.415,322.017 183.993 C 325.390 177.020,333.532 173.570,342.253 175.419 M274.797 182.763 C 273.999 186.563,272.304 194.665,271.029 200.768 L 268.710 211.863 265.574 211.863 C 262.730 211.863,262.450 211.818,262.554 211.375 C 262.779 210.421,269.923 176.112,269.923 175.984 C 269.923 175.913,271.346 175.855,273.085 175.855 L 276.246 175.855 274.797 182.763 M226.165 194.009 C 225.817 194.148,223.259 194.519,220.480 194.833 C 210.295 195.981,208.094 197.276,208.096 202.115 C 208.097 206.210,211.548 208.535,216.409 207.715 C 221.798 206.806,225.366 203.002,226.924 196.504 C 227.673 193.377,227.680 193.400,226.165 194.009 M342.006 194.009 C 341.658 194.148,339.100 194.519,336.321 194.833 C 326.136 195.981,323.935 197.276,323.937 202.115 C 323.938 206.210,327.389 208.535,332.249 207.715 C 337.639 206.806,341.207 203.002,342.765 196.504 C 343.514 193.377,343.521 193.400,342.006 194.009 M300.265 225.890 C 300.186 226.235,299.903 227.554,299.636 228.821 L 299.152 231.124 294.028 231.124 C 291.210 231.124,288.900 231.155,288.895 231.193 C 288.890 231.232,287.537 237.795,285.889 245.778 L 282.892 260.293 279.199 260.371 C 277.168 260.414,275.506 260.412,275.506 260.366 C 275.506 260.321,276.825 253.903,278.437 246.104 C 280.049 238.304,281.368 231.743,281.368 231.523 C 281.368 231.191,280.513 231.124,276.311 231.124 L 271.254 231.124 271.422 230.495 C 271.514 230.150,271.797 228.831,272.051 227.565 L 272.512 225.262 286.461 225.262 L 300.409 225.262 300.265 225.890 M316.302 235.002 C 327.529 239.325,324.243 258.156,311.813 260.737 C 301.493 262.879,294.391 255.173,297.126 244.801 C 299.304 236.543,308.328 231.931,316.302 235.002 M375.953 234.500 C 377.053 234.884,377.064 234.763,375.645 237.970 L 374.459 240.652 373.288 240.479 C 368.267 239.735,365.826 243.281,363.390 254.858 L 362.217 260.433 358.778 260.433 C 356.212 260.433,355.339 260.344,355.339 260.084 C 355.339 259.892,356.469 254.227,357.851 247.496 C 359.233 240.765,360.363 235.144,360.363 235.005 C 360.363 234.866,361.873 234.752,363.718 234.752 C 367.053 234.752,367.072 234.756,366.930 235.380 C 366.014 239.410,365.997 239.374,367.835 237.286 C 370.213 234.585,373.227 233.550,375.953 234.500 M394.736 234.997 C 397.030 235.886,399.721 238.960,399.721 240.691 C 399.721 240.950,398.786 241.213,396.655 241.553 L 393.588 242.042 392.537 240.942 C 390.194 238.488,384.089 238.847,384.089 241.439 C 384.089 242.464,385.093 243.053,388.876 244.245 C 396.110 246.526,398.389 248.651,397.969 252.720 C 396.976 262.341,379.416 264.404,374.649 255.460 C 373.382 253.083,373.393 253.062,376.064 252.671 C 377.331 252.485,378.812 252.260,379.355 252.169 C 380.298 252.012,380.383 252.068,381.195 253.374 C 382.902 256.121,387.761 256.846,390.076 254.699 C 391.875 253.033,391.000 251.986,386.462 250.374 C 378.441 247.525,376.402 245.160,377.827 240.359 C 379.326 235.312,388.249 232.483,394.736 234.997 M338.311 234.869 C 338.311 234.933,337.432 238.846,336.357 243.565 C 334.100 253.476,334.031 254.208,335.262 255.244 C 336.723 256.473,338.576 256.017,340.684 253.909 C 342.574 252.019,343.004 250.833,344.995 242.010 L 346.601 234.892 350.167 234.813 C 353.468 234.741,353.724 234.772,353.610 235.232 C 353.542 235.506,352.239 241.287,350.714 248.079 L 347.941 260.428 344.631 260.431 C 341.341 260.433,341.322 260.429,341.466 259.805 C 341.546 259.459,341.698 258.754,341.804 258.238 L 341.998 257.300 340.491 258.438 C 333.837 263.462,326.559 260.824,327.231 253.632 C 327.364 252.210,330.752 236.363,331.193 235.101 C 331.308 234.774,338.311 234.546,338.311 234.869 M309.158 239.914 C 303.852 241.804,301.616 251.941,305.896 254.703 C 310.106 257.421,314.974 253.731,316.001 247.043 C 316.831 241.639,313.642 238.317,309.158 239.914 M217.013 287.230 C 218.683 288.073,219.840 289.469,220.194 291.068 L 220.457 292.254 219.121 292.254 C 217.941 292.254,217.766 292.175,217.616 291.578 C 216.625 287.628,208.514 287.679,208.514 291.634 C 208.514 293.121,209.282 293.753,212.003 294.506 C 213.231 294.847,215.108 295.383,216.173 295.699 C 224.001 298.019,221.795 307.048,213.399 307.048 C 208.739 307.048,205.724 304.808,205.040 300.837 L 204.860 299.791 206.237 299.791 C 207.569 299.791,207.620 299.820,207.786 300.698 C 208.707 305.575,217.561 306.306,218.194 301.557 C 218.476 299.439,218.037 299.178,210.538 297.010 C 204.227 295.186,204.005 288.635,210.187 286.640 C 211.690 286.155,215.544 286.488,217.013 287.230 M303.140 286.841 C 303.140 287.770,300.202 290.579,299.231 290.579 L 298.161 290.579 299.045 288.627 L 299.930 286.674 301.535 286.673 C 302.418 286.672,303.140 286.748,303.140 286.841 M338.399 287.076 C 343.197 288.787,342.677 295.861,337.650 297.268 L 336.338 297.636 337.133 298.119 C 338.124 298.722,339.206 300.090,341.106 303.140 C 341.918 304.445,342.767 305.796,342.992 306.141 L 343.400 306.769 341.623 306.757 L 339.846 306.746 338.032 303.803 C 334.778 298.526,333.908 297.837,330.504 297.837 L 328.542 297.837 328.542 302.303 L 328.542 306.769 327.146 306.769 L 325.750 306.769 325.750 296.720 L 325.750 286.671 331.542 286.684 C 335.693 286.692,337.636 286.803,338.399 287.076 M365.563 287.427 C 372.166 290.959,371.466 304.274,364.569 306.319 C 363.430 306.657,361.850 306.769,358.219 306.769 L 353.385 306.769 353.385 296.699 L 353.385 286.629 358.897 286.720 C 363.952 286.803,364.506 286.862,365.563 287.427 M328.542 292.254 L 328.542 295.604 331.821 295.597 C 337.097 295.586,338.512 294.954,338.790 292.483 C 339.090 289.824,337.341 288.908,331.961 288.906 L 328.542 288.904 328.542 292.254 M356.176 296.683 L 356.176 304.536 358.897 304.529 C 364.958 304.514,366.836 302.968,367.243 297.658 C 367.718 291.458,365.753 289.182,359.735 288.961 L 356.176 288.830 356.176 296.683 M234.232 292.749 C 235.805 293.722,235.956 294.320,236.152 300.349 C 236.250 303.343,236.428 306.012,236.548 306.281 C 236.738 306.707,236.601 306.769,235.465 306.769 C 234.267 306.769,234.142 306.702,233.868 305.918 C 233.600 305.148,233.527 305.106,233.110 305.483 C 230.107 308.201,224.476 307.279,223.572 303.921 C 222.773 300.953,224.675 299.006,228.980 298.384 C 233.688 297.703,233.907 297.582,233.343 295.964 C 232.515 293.587,227.276 293.772,226.504 296.206 C 226.325 296.770,224.892 296.919,224.152 296.451 C 223.602 296.103,224.642 293.886,225.673 293.210 C 227.828 291.798,232.303 291.557,234.232 292.749 M248.419 292.388 C 248.858 292.615,249.484 293.139,249.809 293.552 L 250.399 294.303 251.299 293.435 C 253.672 291.145,257.484 291.539,258.827 294.214 C 259.245 295.045,259.315 296.020,259.316 300.977 L 259.316 306.769 258.076 306.769 L 256.836 306.769 256.750 301.215 C 256.655 295.036,256.548 294.674,254.717 294.330 C 251.713 293.767,250.847 295.386,250.712 301.814 L 250.609 306.769 249.380 306.769 L 248.151 306.769 248.151 301.479 C 248.151 294.620,247.595 293.492,244.721 294.508 C 242.612 295.254,242.441 295.766,242.341 301.625 L 242.254 306.769 240.876 306.769 L 239.498 306.769 239.498 299.512 L 239.498 292.254 240.754 292.254 C 241.980 292.254,242.010 292.275,242.010 293.144 L 242.010 294.033 242.777 293.299 C 244.174 291.963,246.783 291.542,248.419 292.388 M273.031 292.749 C 274.605 293.722,274.756 294.320,274.952 300.349 C 275.049 303.343,275.227 306.012,275.347 306.281 C 275.538 306.707,275.401 306.769,274.265 306.769 C 273.066 306.769,272.941 306.702,272.668 305.918 C 272.400 305.148,272.327 305.106,271.910 305.483 C 268.907 308.201,263.276 307.279,262.371 303.921 C 261.572 300.953,263.474 299.006,267.779 298.384 C 272.487 297.703,272.707 297.582,272.143 295.964 C 271.314 293.587,266.076 293.772,265.304 296.206 C 265.125 296.770,263.692 296.919,262.952 296.451 C 262.401 296.103,263.442 293.886,264.473 293.210 C 266.627 291.798,271.103 291.557,273.031 292.749 M288.529 292.699 C 290.396 294.093,290.431 294.233,290.529 300.787 L 290.619 306.769 289.369 306.769 L 288.119 306.769 288.023 301.485 C 287.901 294.731,286.990 293.267,283.693 294.522 C 281.618 295.312,281.368 296.092,281.368 301.786 L 281.368 306.769 279.972 306.769 L 278.576 306.769 278.576 299.512 L 278.576 292.254 279.833 292.254 C 281.058 292.254,281.089 292.275,281.089 293.144 L 281.089 294.033 281.856 293.299 C 283.394 291.829,286.937 291.510,288.529 292.699 M303.607 292.516 C 305.642 293.440,305.772 293.859,305.942 300.057 C 306.040 303.636,306.211 305.729,306.440 306.141 C 306.781 306.755,306.758 306.769,305.376 306.769 C 304.030 306.769,303.956 306.730,303.796 305.932 C 303.612 305.010,303.375 304.893,302.887 305.482 C 301.605 307.026,296.783 307.550,295.141 306.324 C 291.043 303.264,293.258 299.191,299.529 298.256 C 303.411 297.678,303.419 297.675,303.419 296.689 C 303.419 293.852,297.477 293.297,296.435 296.037 C 296.163 296.754,294.796 296.996,293.970 296.472 C 293.437 296.135,294.467 293.859,295.440 293.221 C 297.477 291.887,301.463 291.542,303.607 292.516 M229.754 300.612 C 226.328 301.242,225.240 302.392,226.645 303.900 C 228.674 306.077,233.200 304.266,233.425 301.186 C 233.513 299.979,233.341 299.952,229.754 300.612 M268.553 300.612 C 265.128 301.242,264.040 302.392,265.445 303.900 C 267.473 306.077,272.000 304.266,272.225 301.186 C 272.313 299.979,272.141 299.952,268.553 300.612 M300.166 300.519 C 296.297 301.168,295.247 301.988,296.276 303.560 C 298.062 306.286,303.419 304.198,303.419 300.777 C 303.419 299.966,303.455 299.968,300.166 300.519 M313.189 306.220 C 313.189 308.506,312.702 309.876,311.643 310.570 C 310.431 311.364,309.841 310.390,310.826 309.219 C 311.204 308.769,311.514 308.232,311.514 308.027 C 311.514 307.821,311.591 307.453,311.684 307.211 C 311.812 306.878,311.674 306.769,311.125 306.769 C 310.449 306.769,310.398 306.680,310.398 305.513 L 310.398 304.257 311.793 304.257 L 313.189 304.257 313.189 306.220 M348.918 305.513 L 348.918 306.769 347.523 306.769 L 346.127 306.769 346.127 305.513 L 346.127 304.257 347.523 304.257 L 348.918 304.257 348.918 305.513 M376.832 305.513 L 376.832 306.769 375.436 306.769 L 374.040 306.769 374.040 305.513 L 374.040 304.257 375.436 304.257 L 376.832 304.257 376.832 305.513 " stroke="none" fill="#fbfbfb" fill-rule="evenodd"></path><path id="path4" d="M290.440 30.838 C 282.338 32.134,274.599 35.745,268.876 40.901 C 266.868 42.711,266.808 42.872,268.039 43.138 C 268.806 43.304,273.003 44.861,273.197 45.052 C 273.675 45.522,271.574 50.652,270.932 50.582 C 270.242 50.506,270.086 50.722,268.623 53.792 L 267.055 57.083 268.059 67.376 C 268.611 73.038,269.100 77.706,269.144 77.749 C 269.402 78.001,281.122 78.430,283.588 78.278 C 288.162 77.995,294.177 80.678,300.985 86.040 L 302.041 86.871 295.040 93.973 L 288.040 101.074 289.150 103.084 L 290.260 105.094 296.991 107.327 C 300.693 108.555,303.846 109.749,303.998 109.979 C 304.305 110.444,304.331 110.417,309.196 104.815 C 316.830 96.023,317.245 94.075,314.712 78.941 C 311.051 57.074,312.908 44.663,320.443 40.638 L 322.204 39.697 320.418 38.382 C 311.910 32.118,300.458 29.236,290.440 30.838 M322.001 42.949 C 320.507 51.903,324.471 59.935,334.269 67.805 L 336.497 69.595 336.588 68.503 C 337.212 61.033,331.693 48.897,324.441 41.792 L 322.509 39.900 322.001 42.949 M261.311 50.344 C 259.847 52.904,258.437 56.220,257.688 58.867 L 257.115 60.889 258.286 60.199 C 259.848 59.278,260.401 58.476,260.677 56.726 C 260.804 55.922,261.099 55.046,261.333 54.778 C 261.723 54.331,263.875 48.834,263.714 48.698 C 262.928 48.039,262.438 48.374,261.311 50.344 M264.220 51.431 C 263.776 52.697,263.362 53.875,263.301 54.048 C 263.241 54.221,263.510 54.443,263.901 54.541 C 265.179 54.861,265.118 56.421,263.769 57.920 C 263.392 58.339,263.244 59.049,263.175 60.766 L 263.084 63.052 264.689 63.456 C 266.571 63.929,266.437 64.292,265.984 59.959 L 265.672 56.973 267.239 53.714 C 268.101 51.921,268.807 50.361,268.807 50.247 C 268.807 50.055,265.897 49.128,265.294 49.128 C 265.148 49.128,264.665 50.164,264.220 51.431 M257.608 63.433 C 257.590 63.625,257.596 63.939,257.620 64.131 C 257.645 64.323,257.538 64.480,257.382 64.480 C 256.847 64.480,256.214 66.166,256.300 67.357 C 256.384 68.511,256.400 68.488,257.398 65.806 C 258.146 63.797,258.310 63.084,258.026 63.084 C 257.814 63.084,257.626 63.241,257.608 63.433 M262.497 64.596 C 262.426 64.779,262.404 66.547,262.448 68.525 L 262.526 72.122 264.480 72.621 C 267.575 73.412,267.357 73.711,266.912 69.295 C 266.699 67.184,266.491 65.423,266.449 65.381 C 266.081 65.006,262.604 64.316,262.497 64.596 M259.342 70.447 C 259.048 70.804,259.029 71.004,259.267 71.242 C 259.690 71.665,259.941 71.376,259.827 70.599 C 259.742 70.017,259.706 70.006,259.342 70.447 M257.219 73.782 C 255.888 75.789,256.073 76.321,258.251 76.750 C 260.305 77.154,260.191 77.285,259.942 74.807 C 259.650 71.914,258.697 71.555,257.219 73.782 M262.325 75.427 C 262.255 76.545,262.218 77.489,262.242 77.526 C 262.276 77.578,267.598 78.716,267.807 78.716 C 267.893 78.716,267.449 74.750,267.355 74.677 C 267.309 74.641,266.392 74.400,265.318 74.140 C 264.243 73.880,263.158 73.606,262.907 73.531 C 262.521 73.416,262.431 73.710,262.325 75.427 M257.119 79.845 C 257.853 82.998,260.101 88.885,260.142 87.763 C 260.157 87.361,261.394 86.811,262.282 86.811 C 263.071 86.811,263.071 86.596,262.286 81.093 L 261.968 78.864 259.295 78.288 L 256.622 77.711 257.119 79.845 M263.503 79.510 C 263.503 79.703,267.230 80.949,267.806 80.949 C 268.282 80.949,267.876 80.101,267.341 79.980 C 263.920 79.203,263.503 79.152,263.503 79.510 M263.738 81.698 C 264.154 82.441,268.248 83.544,268.248 82.913 C 268.248 82.550,267.711 82.285,266.052 81.830 C 263.412 81.107,263.407 81.106,263.738 81.698 M150.257 82.273 C 151.454 82.326,153.338 82.325,154.444 82.273 C 155.550 82.220,154.571 82.177,152.268 82.177 C 149.965 82.178,149.060 82.221,150.257 82.273 M263.971 83.984 C 264.069 84.358,264.642 84.650,265.969 85.004 C 266.992 85.278,267.999 85.563,268.207 85.638 C 268.453 85.728,268.550 85.602,268.486 85.276 C 268.409 84.883,265.390 83.698,263.878 83.468 C 263.854 83.464,263.896 83.697,263.971 83.984 M273.412 84.007 C 270.002 84.150,269.786 84.193,269.826 84.717 C 270.160 89.141,270.250 89.602,270.784 89.602 C 272.352 89.602,272.834 91.605,271.911 94.278 C 271.440 95.641,271.438 95.743,271.877 95.743 C 272.136 95.743,272.574 95.992,272.848 96.295 C 273.341 96.840,273.368 96.828,274.868 95.458 C 275.704 94.694,276.558 94.068,276.766 94.068 C 276.973 94.068,277.229 93.786,277.335 93.440 C 277.676 92.318,278.321 91.835,279.475 91.835 C 281.585 91.835,282.172 92.802,281.201 94.679 C 280.853 95.352,280.822 95.689,281.061 96.214 C 281.230 96.583,281.368 97.459,281.368 98.159 C 281.368 99.205,281.446 99.401,281.809 99.262 C 282.052 99.169,282.492 99.093,282.786 99.093 C 283.232 99.093,283.322 98.889,283.322 97.877 C 283.322 96.434,284.280 95.185,285.389 95.185 C 287.183 95.185,288.236 96.492,288.009 98.437 C 287.891 99.450,287.946 99.408,291.178 96.001 C 292.986 94.094,294.473 92.408,294.480 92.254 C 294.498 91.890,289.423 87.000,287.436 85.467 C 285.057 83.631,284.279 83.550,273.412 84.007 M132.659 85.608 C 132.927 85.678,133.367 85.678,133.636 85.608 C 133.904 85.537,133.685 85.480,133.147 85.480 C 132.610 85.480,132.390 85.537,132.659 85.608 M264.384 86.414 C 264.530 87.169,265.660 87.639,267.341 87.644 C 269.342 87.650,269.180 87.273,266.923 86.670 C 265.886 86.393,264.869 86.105,264.661 86.029 C 264.412 85.939,264.318 86.069,264.384 86.414 M264.889 90.091 C 264.883 90.820,264.700 91.731,264.480 92.114 C 263.923 93.090,263.961 93.231,264.783 93.231 C 265.329 93.231,265.583 93.435,265.822 94.068 C 266.388 95.568,266.886 95.032,266.949 92.853 C 266.996 91.271,267.680 89.905,268.537 89.681 C 269.811 89.347,268.721 88.765,266.823 88.765 L 264.899 88.765 264.889 90.091 " stroke="none" fill="#fade15" fill-rule="evenodd"></path></g></svg>